<svg width="19" height="20" viewBox="0 0 19 20" fill="none" xmlns="http://www.w3.org/2000/svg">
<path d="M9.50425 5.05879C6.80693 5.05879 4.63126 7.26309 4.63126 9.9959C4.63126 12.7287 6.80693 14.933 9.50425 14.933C12.2016 14.933 14.3772 12.7287 14.3772 9.9959C14.3772 7.26309 12.2016 5.05879 9.50425 5.05879ZM9.50425 13.2057C7.76117 13.2057 6.33617 11.7662 6.33617 9.9959C6.33617 8.22559 7.75693 6.78613 9.50425 6.78613C11.2516 6.78613 12.6723 8.22559 12.6723 9.9959C12.6723 11.7662 11.2473 13.2057 9.50425 13.2057ZM15.7132 4.85684C15.7132 5.49707 15.2042 6.0084 14.5766 6.0084C13.9447 6.0084 13.44 5.49277 13.44 4.85684C13.44 4.2209 13.9489 3.70527 14.5766 3.70527C15.2042 3.70527 15.7132 4.2209 15.7132 4.85684ZM18.9406 6.02559C18.8685 4.48301 18.5208 3.1166 17.4054 1.99082C16.2942 0.865039 14.9455 0.512695 13.423 0.435352C11.8538 0.345117 7.15045 0.345117 5.58126 0.435352C4.06295 0.508398 2.71429 0.860742 1.59889 1.98652C0.483489 3.1123 0.139962 4.47871 0.063623 6.02129C-0.0254395 7.61113 -0.0254395 12.3764 0.063623 13.9662C0.135721 15.5088 0.483489 16.8752 1.59889 18.001C2.71429 19.1268 4.05871 19.4791 5.58126 19.5564C7.15045 19.6467 11.8538 19.6467 13.423 19.5564C14.9455 19.4834 16.2942 19.1311 17.4054 18.001C18.5165 16.8752 18.8643 15.5088 18.9406 13.9662C19.0297 12.3764 19.0297 7.61543 18.9406 6.02559ZM16.9134 15.6721C16.5826 16.5143 15.9422 17.1631 15.1067 17.5025C13.8556 18.0053 10.8868 17.8893 9.50425 17.8893C8.12166 17.8893 5.14867 18.001 3.90179 17.5025C3.07054 17.1674 2.43014 16.5186 2.0951 15.6721C1.59889 14.4045 1.7134 11.3967 1.7134 9.9959C1.7134 8.59512 1.60313 5.58301 2.0951 4.31973C2.4259 3.47754 3.0663 2.82871 3.90179 2.48926C5.15291 1.98652 8.12166 2.10254 9.50425 2.10254C10.8868 2.10254 13.8598 1.99082 15.1067 2.48926C15.938 2.82441 16.5784 3.47324 16.9134 4.31973C17.4096 5.5873 17.2951 8.59512 17.2951 9.9959C17.2951 11.3967 17.4096 14.4088 16.9134 15.6721Z" fill="black"/>
</svg>
