<svg width="43" height="44" viewBox="0 0 43 44" fill="none" xmlns="http://www.w3.org/2000/svg">
<g clip-path="url(#clip0_1_4)">
<path fill-rule="evenodd" clip-rule="evenodd" d="M33.7775 43.1046H9.22252C4.12708 43.1046 0 38.9511 0 33.8747V9.27683C0 4.17728 4.12708 0.046875 9.22252 0.046875H33.7775C38.8729 0.046875 43 4.17728 43 9.27683V33.8747C43 38.9511 38.8729 43.1046 33.7775 43.1046ZM17.0144 33.3891H14.6627C14.3399 33.3891 14.1093 33.1122 14.1554 32.7892L17.7061 10.9834C17.7522 10.7296 17.9597 10.545 18.2133 10.545H20.5651C20.8879 10.545 21.1184 10.8219 21.0723 11.1449L17.5216 32.9507C17.4986 33.2045 17.268 33.3891 17.0144 33.3891ZM20.6815 33.3891H23.0332C23.2869 33.3891 23.4944 33.2045 23.5405 32.9507L27.0912 11.1449C27.1373 10.8219 26.9067 10.545 26.5839 10.545H24.2322C23.9786 10.545 23.771 10.7296 23.7249 10.9834L20.1743 32.7892C20.1282 33.1122 20.3587 33.3891 20.6815 33.3891ZM31.8645 18.6909L33.0865 11.1454C33.1326 10.8224 32.902 10.5455 32.5792 10.5455H30.2275C29.9739 10.5455 29.7664 10.7301 29.7202 10.9839L28.4983 18.5294C28.4522 18.8525 28.6827 19.1294 29.0055 19.1294H31.3572C31.6109 19.1294 31.8184 18.9448 31.8645 18.6909ZM15.0801 11.1459L13.8581 18.6913C13.812 18.9452 13.6045 19.1298 13.374 19.1298H11.0222C10.6994 19.1298 10.4689 18.8529 10.515 18.5298L11.737 10.9843C11.7831 10.7305 11.9906 10.5459 12.2442 10.5459H14.5729C14.8957 10.5459 15.1262 10.8228 15.0801 11.1459Z" fill="#004E34"/>
</g>
<defs>
<clipPath id="clip0_1_4">
<rect width="43" height="44" fill="white"/>
</clipPath>
</defs>
</svg>
