<svg width="32" height="32" viewBox="0 0 32 32" fill="none" xmlns="http://www.w3.org/2000/svg">
<path d="M21.0199 11.4012C20.9137 11.3464 20.8104 11.2862 20.7103 11.221C20.4191 11.0285 20.1521 10.8017 19.9151 10.5454C19.322 9.86685 19.1005 9.17846 19.0189 8.69649H19.0223C18.954 8.29644 18.9823 8.0376 18.9865 8.0376H16.2853V18.4824C16.2853 18.6226 16.2853 18.7612 16.2795 18.8981C16.2795 18.9152 16.2779 18.9309 16.2768 18.9493C16.2768 18.9568 16.2768 18.9646 16.2752 18.9725V18.9784C16.2468 19.3532 16.1267 19.7152 15.9253 20.0326C15.7241 20.3501 15.448 20.6132 15.1212 20.7988C14.7807 20.9926 14.3955 21.0942 14.0036 21.0937C12.7451 21.0937 11.7252 20.0676 11.7252 18.8001C11.7252 17.5328 12.7451 16.5066 14.0036 16.5066C14.2419 16.5064 14.4787 16.5438 14.7051 16.6177L14.7084 13.8674C14.0208 13.7786 13.3222 13.8333 12.6568 14.028C11.9914 14.2226 11.3735 14.553 10.8422 14.9985C10.3766 15.403 9.9852 15.8857 9.68557 16.4248C9.57155 16.6213 9.14135 17.4113 9.08925 18.6933C9.05648 19.421 9.27503 20.175 9.37921 20.4865V20.4932C9.44475 20.6766 9.69868 21.3028 10.1125 21.8306C10.4462 22.254 10.8404 22.626 11.2825 22.9344V22.9278L11.2891 22.9344C12.5967 23.823 14.0465 23.7646 14.0465 23.7646C14.2976 23.7545 15.1383 23.7646 16.0931 23.3122C17.152 22.8106 17.7549 22.0632 17.7549 22.0632C18.14 21.6166 18.4463 21.1077 18.6605 20.5584C18.9049 19.9158 18.9865 19.1452 18.9865 18.8372V13.296C19.0192 13.3157 19.4557 13.6044 19.4557 13.6044C19.4557 13.6044 20.0844 14.0073 21.0655 14.2698C21.7692 14.4565 22.7175 14.4958 22.7175 14.4958V11.8144C22.3852 11.8504 21.7105 11.7456 21.0199 11.4012Z" fill="black"/>
</svg>
