<svg width="19" height="17" viewBox="0 0 19 17" fill="none" xmlns="http://www.w3.org/2000/svg">
<path d="M17.0469 4.62997C17.059 4.79875 17.059 4.96756 17.059 5.13633C17.059 10.2841 13.1409 16.2156 5.97969 16.2156C3.77347 16.2156 1.72399 15.5766 0 14.4676C0.313463 14.5037 0.614828 14.5158 0.940352 14.5158C2.76075 14.5158 4.43654 13.9009 5.77474 12.8521C4.06281 12.8159 2.62816 11.6947 2.13386 10.1516C2.375 10.1877 2.6161 10.2118 2.8693 10.2118C3.2189 10.2118 3.56855 10.1636 3.89404 10.0792C2.10978 9.71752 0.771541 8.15028 0.771541 6.25752V6.20931C1.28992 6.49865 1.89276 6.67949 2.53168 6.70357C1.48282 6.00432 0.795662 4.81081 0.795662 3.46055C0.795662 2.73721 0.98852 2.07414 1.3261 1.49546C3.24299 3.85839 6.12435 5.40151 9.35527 5.57032C9.29501 5.28098 9.25883 4.97962 9.25883 4.67822C9.25883 2.53225 10.9949 0.78418 13.1529 0.78418C14.274 0.78418 15.2867 1.25436 15.998 2.01387C16.8781 1.8451 17.722 1.51958 18.4695 1.07352C18.1801 1.97773 17.5653 2.73725 16.7576 3.21945C17.5412 3.1351 18.3007 2.91804 18.9999 2.61668C18.4696 3.38822 17.8065 4.07537 17.0469 4.62997Z" fill="black"/>
</svg>
