<svg width="24" height="17" viewBox="0 0 24 17" fill="none" xmlns="http://www.w3.org/2000/svg">
<path d="M22.9023 3.08934C22.6406 2.11932 21.8695 1.35537 20.8904 1.09611C19.1159 0.625 12 0.625 12 0.625C12 0.625 4.88415 0.625 3.10953 1.09611C2.13048 1.35541 1.3594 2.11932 1.09769 3.08934C0.622192 4.84756 0.622192 8.51591 0.622192 8.51591C0.622192 8.51591 0.622192 12.1843 1.09769 13.9425C1.3594 14.9125 2.13048 15.6446 3.10953 15.9039C4.88415 16.375 12 16.375 12 16.375C12 16.375 19.1158 16.375 20.8904 15.9039C21.8695 15.6446 22.6406 14.9125 22.9023 13.9425C23.3778 12.1843 23.3778 8.51591 23.3778 8.51591C23.3778 8.51591 23.3778 4.84756 22.9023 3.08934ZM9.67269 11.8465V5.18532L15.6202 8.516L9.67269 11.8465Z" fill="black"/>
</svg>
