<svg width="19" height="20" fill="none" xmlns="http://www.w3.org/2000/svg"><path d="M17.643.375H1.353C.606.375 0 .998 0 1.763v16.474c0 .765.606 1.388 1.353 1.388h16.29c.746 0 1.357-.623 1.357-1.388V1.763c0-.765-.61-1.388-1.357-1.388zm-11.9 16.5H2.925V7.688h2.82v9.187h-.004zM4.333 6.434a1.644 1.644 0 01-1.632-1.655c0-.91.729-1.654 1.632-1.654.9 0 1.633.743 1.633 1.654 0 .916-.73 1.655-1.633 1.655zm11.964 10.441h-2.816v-4.469c0-1.065-.02-2.436-1.463-2.436-1.467 0-1.692 1.16-1.692 2.359v4.546H7.511V7.688h2.702v1.255h.038c.377-.722 1.297-1.482 2.667-1.482 2.85 0 3.38 1.903 3.38 4.378v5.036z" fill="#000"/></svg>