<svg width="19" height="20" fill="none" xmlns="http://www.w3.org/2000/svg"><path d="M9.504 5.059c-2.697 0-4.873 2.204-4.873 4.937s2.176 4.937 4.873 4.937c2.698 0 4.873-2.204 4.873-4.937s-2.175-4.937-4.873-4.937zm0 8.147c-1.743 0-3.168-1.44-3.168-3.21s1.42-3.21 3.168-3.21c1.748 0 3.168 1.44 3.168 3.21s-1.425 3.21-3.168 3.21zm6.21-8.35c0 .641-.51 1.152-1.137 1.152a1.142 1.142 0 01-1.137-1.151c0-.636.509-1.152 1.137-1.152.627 0 1.136.516 1.136 1.152zm3.227 1.17c-.072-1.543-.42-2.91-1.536-4.035C16.295.865 14.945.513 13.423.435c-1.57-.09-6.273-.09-7.842 0C4.063.508 2.714.861 1.6 1.987.483 3.112.14 4.479.064 6.02c-.09 1.59-.09 6.355 0 7.945.072 1.543.42 2.91 1.535 4.035 1.115 1.126 2.46 1.478 3.982 1.555 1.57.09 6.273.09 7.842 0 1.522-.073 2.871-.425 3.982-1.555 1.111-1.126 1.46-2.492 1.536-4.035.089-1.59.089-6.35 0-7.94zm-2.028 9.646a3.229 3.229 0 01-1.806 1.83c-1.251.503-4.22.387-5.603.387-1.382 0-4.355.112-5.602-.386a3.228 3.228 0 01-1.807-1.83c-.496-1.268-.382-4.276-.382-5.677 0-1.4-.11-4.413.382-5.676a3.229 3.229 0 011.807-1.83c1.25-.503 4.22-.387 5.602-.387 1.383 0 4.356-.112 5.603.386a3.228 3.228 0 011.806 1.83c.497 1.268.382 4.276.382 5.677 0 1.4.115 4.413-.382 5.676z" fill="#000"/></svg>