<svg width="43" height="44" fill="none" xmlns="http://www.w3.org/2000/svg"><g clip-path="url(#clip0_1_4)"><path fill-rule="evenodd" clip-rule="evenodd" d="M33.778 43.105H9.223C4.127 43.105 0 38.95 0 33.875V9.277c0-5.1 4.127-9.23 9.223-9.23h24.555C38.873.047 43 4.177 43 9.277v24.598c0 5.076-4.127 9.23-9.222 9.23zm-16.764-9.716h-2.351a.512.512 0 01-.508-.6l3.551-21.806a.519.519 0 01.507-.438h2.352c.323 0 .553.277.507.6l-3.55 21.806c-.023.254-.254.438-.508.438zm3.668 0h2.351a.519.519 0 00.508-.438l3.55-21.806a.512.512 0 00-.507-.6h-2.352a.519.519 0 00-.507.438l-3.55 21.806a.51.51 0 00.506.6zm11.183-14.698l1.222-7.546a.512.512 0 00-.508-.6h-2.352a.519.519 0 00-.507.439l-1.222 7.545c-.046.323.185.6.508.6h2.351a.519.519 0 00.508-.438zM15.08 11.146l-1.222 7.545c-.046.254-.254.439-.484.439h-2.352a.512.512 0 01-.507-.6l1.222-7.546a.519.519 0 01.507-.438h2.329c.323 0 .553.277.507.6z" fill="#004E34"/></g><defs><clipPath id="clip0_1_4"><path fill="#fff" d="M0 0h43v44H0z"/></clipPath></defs></svg>