<svg width="32" height="32" fill="none" xmlns="http://www.w3.org/2000/svg"><path d="M21.02 11.401a3.55 3.55 0 01-.31-.18 4.351 4.351 0 01-.795-.676 3.75 3.75 0 01-.896-1.849h.003c-.068-.4-.04-.658-.035-.658h-2.702v10.444c0 .14 0 .28-.006.416l-.002.051c0 .008 0 .016-.002.023v.006a2.29 2.29 0 01-2.271 2.116 2.285 2.285 0 01-2.279-2.294 2.285 2.285 0 012.279-2.293c.238 0 .475.037.701.11l.003-2.75a5.017 5.017 0 00-3.866 1.131 5.3 5.3 0 00-1.156 1.427c-.114.196-.545.986-.597 2.268-.033.728.186 1.482.29 1.793v.007c.066.184.32.81.734 1.338.333.423.727.795 1.17 1.103v-.006l.006.006c1.308.889 2.758.83 2.758.83.25-.01 1.091 0 2.046-.452a5.136 5.136 0 001.662-1.249c.385-.446.691-.955.905-1.505a5.639 5.639 0 00.326-1.72v-5.542c.033.02.47.308.47.308s.628.403 1.61.666c.703.187 1.652.226 1.652.226v-2.682c-.333.036-1.008-.068-1.698-.413z" fill="#000"/></svg>